<?xml version="1.0" encoding="UTF-8"?>
<svg id="Ebene_2" data-name="Ebene 2" xmlns="http://www.w3.org/2000/svg" viewBox="0 0 488.28 93.09">
  <defs>
    <style>
      .cls-1 {
        fill: #4a90e2;
      }

      .cls-2 {
        fill: #ff8c00;
      }
    </style>
  </defs>
  <g id="Ebene_1-2" data-name="Ebene 1">
    <g>
      <path class="cls-2" d="M0,8.69C0,4.5,3.48,1.02,7.67,1.02h26.19c3.99,0,7.16,3.17,7.16,7.16s-3.17,7.16-7.16,7.16H15.34v14.32h18.52c3.99,0,7.16,3.17,7.16,7.16s-3.17,7.16-7.16,7.16H15.34v21.99c0,4.19-3.48,7.67-7.67,7.67s-7.67-3.48-7.67-7.67V8.69Z"/>
      <path class="cls-2" d="M47.16,46.54c0-15.14,10.84-27.11,25.27-27.11,5.63,0,10.84,1.94,15.04,5.12.92-2.97,3.68-5.12,6.96-5.12,3.99,0,7.16,3.17,7.16,7.16v39.9c0,3.99-3.17,7.16-7.16,7.16-3.27,0-6.04-2.15-6.96-5.12-4.19,3.27-9.41,5.12-15.04,5.12-14.42,0-25.27-11.97-25.27-27.11ZM87.26,46.54c0-7.88-5.63-13.81-12.79-13.81s-12.89,5.93-12.89,13.81,5.63,13.81,12.89,13.81,12.79-5.83,12.79-13.81Z"/>
      <path class="cls-2" d="M113.86,26.6c0-3.99,3.17-7.16,7.16-7.16s7.16,3.17,7.16,7.16v21.79l22.3-26.6c1.43-1.64,2.97-2.35,4.91-2.35,3.89,0,6.85,2.76,6.85,6.55,0,1.43-.51,2.97-1.53,4.3l-34.47,41.02c-1.43,1.64-2.97,2.35-5.22,2.35-3.99,0-7.16-3.17-7.16-7.16V26.6Z"/>
      <path class="cls-1" d="M167.37,57.29c0-4.19,3.48-7.67,7.67-7.67,3.07,0,4.91,1.64,6.24,3.48,2.05,2.76,3.58,6.24,9.1,6.24,4.6,0,8.18-3.58,8.18-8.18s-4.3-6.44-9.62-8.18l-5.22-1.74c-7.77-2.56-15.86-7.37-15.86-20.87,0-11.56,9.92-20.36,22.5-20.36,13.5,0,21.89,9.82,21.89,15.24,0,4.19-3.48,7.67-7.67,7.67-2.97,0-4.5-1.43-5.93-3.17-1.94-2.46-3.58-5.42-8.29-5.42-3.99,0-7.16,3.17-7.16,7.06,0,4.19,3.89,6.24,8.08,7.57l4.4,1.43c8.59,2.76,18.21,6.96,18.21,21.79,0,12.28-10.33,21.48-23.53,21.48s-23.02-10.03-23.02-16.37Z"/>
      <path class="cls-1" d="M238.46,68.74v17.19c0,3.99-3.17,7.16-7.16,7.16s-7.16-3.17-7.16-7.16V26.6c0-3.99,3.17-7.16,7.16-7.16,3.27,0,6.04,2.15,6.85,5.12,4.19-3.17,9.41-5.12,15.14-5.12,14.42,0,25.27,11.97,25.27,27.11s-10.84,27.11-25.27,27.11c-5.63,0-10.74-1.74-14.83-4.91ZM264.14,46.54c0-7.88-5.63-13.81-12.89-13.81s-12.58,5.73-12.79,13.3v.51c0,7.98,5.63,13.81,12.79,13.81s12.89-5.83,12.89-13.81Z"/>
      <path class="cls-1" d="M288.8,7.16c0-3.99,3.17-7.16,7.16-7.16s7.16,3.17,7.16,7.16v15.04c3.17-1.74,6.75-2.76,10.74-2.76,12.38,0,21.99,9.62,21.99,24.04v23.02c0,3.99-3.17,7.16-7.16,7.16s-7.16-3.17-7.16-7.16v-23.53c0-6.65-4.09-10.23-9.21-10.23s-9.21,3.58-9.21,10.23v23.53c0,3.99-3.17,7.16-7.16,7.16s-7.16-3.17-7.16-7.16V7.16Z"/>
      <path class="cls-1" d="M346.08,46.54c0-15.14,11.46-27.11,27.31-27.11,8.39,0,14.73,3.48,17.59,6.14,1.64,1.43,2.56,3.48,2.56,5.52,0,1.74-.51,3.27-1.94,5.01l-13.2,15.75c-1.43,1.64-2.97,2.35-4.91,2.35-3.89,0-6.85-2.76-6.85-6.55,0-1.53.41-3.07,1.53-4.3l8.8-10.13c-.72-.31-2.46-.51-3.58-.51-7.26,0-12.89,6.14-12.89,13.81s5.52,13.81,12.89,13.81c3.79,0,6.34-1.53,8.08-2.97,2.05-1.74,3.48-3.27,6.24-3.27,3.99,0,7.06,2.86,7.06,6.85,0,1.43-.72,3.17-2.05,4.71-3.48,4.19-10.54,7.98-19.33,7.98-15.75,0-27.31-11.87-27.31-27.11Z"/>
      <path class="cls-1" d="M404.5,45.32c0-15.86,11.05-25.88,24.86-25.88,3.68,0,6.65,2.97,6.65,6.65s-2.97,6.65-6.65,6.65c-5.83,0-10.54,4.09-10.54,12.58v21.17c0,3.99-3.17,7.16-7.16,7.16s-7.16-3.17-7.16-7.16v-21.17Z"/>
      <path class="cls-1" d="M439.59,46.54c0-15.14,11.46-27.11,27.31-27.11,8.39,0,14.73,3.48,17.59,6.14,1.64,1.43,2.56,3.48,2.56,5.52,0,1.74-.51,3.27-1.94,5.01l-13.2,15.75c-1.43,1.64-2.97,2.35-4.91,2.35-3.89,0-6.85-2.76-6.85-6.55,0-1.53.41-3.07,1.53-4.3l8.8-10.13c-.72-.31-2.46-.51-3.58-.51-7.26,0-12.89,6.14-12.89,13.81s5.52,13.81,12.89,13.81c3.78,0,6.34-1.53,8.08-2.97,2.05-1.74,3.48-3.27,6.24-3.27,3.99,0,7.06,2.86,7.06,6.85,0,1.43-.72,3.17-2.04,4.71-3.48,4.19-10.54,7.98-19.33,7.98-15.75,0-27.31-11.87-27.31-27.11Z"/>
    </g>
  </g>
</svg>