<?xml version="1.0" encoding="UTF-8"?>
<svg id="Ebene_2" data-name="Ebene 2" xmlns="http://www.w3.org/2000/svg" xmlns:xlink="http://www.w3.org/1999/xlink" viewBox="0 0 487 487">
  <defs>
    <style>
      .cls-1 {
        fill: url(#Unbenannter_Verlauf_42);
      }

      .cls-2 {
        fill: url(#Unbenannter_Verlauf_108);
      }

      .cls-3 {
        fill: url(#Unbenannter_Verlauf_108-2);
      }
    </style>
    <linearGradient id="Unbenannter_Verlauf_42" data-name="Unbenannter Verlauf 42" x1="71.32" y1="415.68" x2="415.68" y2="71.32" gradientUnits="userSpaceOnUse">
      <stop offset="0" stop-color="#a1d6a1"/>
      <stop offset="1" stop-color="#4a90e2"/>
    </linearGradient>
    <linearGradient id="Unbenannter_Verlauf_108" data-name="Unbenannter Verlauf 108" x1="127.84" y1="45.42" x2="127.84" y2="207.67" gradientUnits="userSpaceOnUse">
      <stop offset="0" stop-color="#ffc600"/>
      <stop offset=".12" stop-color="#fb0"/>
      <stop offset=".46" stop-color="#ffa100"/>
      <stop offset=".76" stop-color="#ff9100"/>
      <stop offset="1" stop-color="#ff8c00"/>
    </linearGradient>
    <linearGradient id="Unbenannter_Verlauf_108-2" data-name="Unbenannter Verlauf 108" x1="393.84" y1="261.42" x2="393.84" y2="423.67" xlink:href="#Unbenannter_Verlauf_108"/>
  </defs>
  <g id="Ebene_1-2" data-name="Ebene 1">
    <path class="cls-1" d="M0,243.5C0,109.02,109.02,0,243.5,0s243.5,109.02,243.5,243.5-109.02,243.5-243.5,243.5S0,377.98,0,243.5M228.28,32.78c-20.39,6.21-40.63,24.96-57.44,56.46-4.36,8.18-8.37,17.02-12.02,26.54,21.46,4.78,44.8,7.82,69.46,8.74V32.78ZM129.33,107.72c4.34-11.71,9.22-22.65,14.64-32.81,5.3-9.93,11.37-19.43,18.17-28.4-25.92,10.73-49.46,26.47-69.28,46.33,11.04,5.62,23.19,10.59,36.46,14.91v-.03ZM106.81,228.28c1.1-32.57,5.72-63.52,13.27-91.56-16.48-5.25-32.43-12.05-47.63-20.3-24.25,32.55-38.64,71.37-41.46,111.86h75.82ZM149.42,144.85c-7.19,27.26-11.27,55.25-12.18,83.43h91.04v-73.32c-27.7-.91-54.27-4.41-78.86-10.11M258.72,154.93v73.35h91.01c-.89-28.18-4.97-56.17-12.14-83.43-24.59,5.69-51.17,9.16-78.86,10.11v-.03ZM137.27,258.72c1.07,30.04,5.36,58.26,12.14,83.43,25.9-5.88,52.31-9.25,78.86-10.07v-73.35h-91.01ZM258.72,258.72v73.32c27.7.91,54.27,4.41,78.86,10.11,6.79-25.17,11.08-53.39,12.17-83.43h-91.04ZM158.82,371.22c3.65,9.52,7.66,18.36,12.02,26.54,16.8,31.5,37.07,50.22,57.44,56.46v-91.71c-24.65.91-48,3.96-69.46,8.74v-.03ZM162.17,440.49c-6.81-8.97-12.89-18.47-18.2-28.4-5.59-10.61-10.48-21.59-14.64-32.84-12.52,4.03-24.71,9.01-36.46,14.91,19.82,19.85,43.36,35.59,69.28,46.33h.03ZM120.08,350.27c-7.89-29.92-12.35-60.63-13.3-91.56H30.99c2.82,40.49,17.21,79.31,41.46,111.86,14.31-7.85,30.29-14.67,47.63-20.3M324.86,440.49c25.9-10.73,49.43-26.46,69.25-46.3-11.74-5.9-23.92-10.89-36.43-14.91-4.16,11.25-9.05,22.21-14.64,32.81-5.3,9.93-11.37,19.43-18.17,28.4M258.72,362.48v91.74c20.39-6.21,40.63-24.96,57.44-56.46,4.38-8.18,8.39-17.02,12.02-26.54-22.84-5.01-46.09-7.93-69.46-8.71v-.03ZM366.92,350.27c17.35,5.63,33.33,12.45,47.63,20.3,24.25-32.55,38.64-71.37,41.46-111.86h-75.79c-.95,30.92-5.41,61.64-13.3,91.56M456.01,228.28c-2.82-40.49-17.21-79.31-41.46-111.86-14.31,7.85-30.29,14.67-47.63,20.3,7.55,28,12.17,58.99,13.3,91.56h75.79ZM343.03,74.91c5.4,10.19,10.29,21.12,14.67,32.81,12.5-4.03,24.67-9.02,36.4-14.91-19.81-19.83-43.35-35.55-69.25-46.26,6.64,8.61,12.72,18.17,18.17,28.37M328.18,115.78c-3.47-9.08-7.49-17.94-12.02-26.54-16.8-31.5-37.04-50.22-57.44-56.46v91.71c24.65-.91,48-3.96,69.46-8.74v.03Z"/>
    <path class="cls-2" d="M127.84,207.67s60.84-57.66,60.84-101.41c0-33.6-27.24-60.84-60.84-60.84s-60.84,27.24-60.84,60.84c0,43.75,60.84,101.41,60.84,101.41M127.84,136.68c-16.8,0-30.42-13.62-30.42-30.42s13.62-30.42,30.42-30.42,30.42,13.62,30.42,30.42-13.62,30.42-30.42,30.42"/>
    <path class="cls-3" d="M393.84,423.67s60.84-57.66,60.84-101.41c0-33.6-27.24-60.84-60.84-60.84s-60.84,27.24-60.84,60.84c0,43.75,60.84,101.41,60.84,101.41M393.84,352.68c-16.8,0-30.42-13.62-30.42-30.42s13.62-30.42,30.42-30.42,30.42,13.62,30.42,30.42-13.62,30.42-30.42,30.42"/>
  </g>
</svg>