<?xml version="1.0" encoding="UTF-8"?>
<svg id="Ebene_2" data-name="Ebene 2" xmlns="http://www.w3.org/2000/svg" xmlns:xlink="http://www.w3.org/1999/xlink" viewBox="0 0 488.42 608.2">
  <defs>
    <style>
      .cls-1 {
        fill: #4a90e2;
      }

      .cls-2 {
        fill: url(#Unbenannter_Verlauf_42);
      }

      .cls-3 {
        fill: url(#Unbenannter_Verlauf_108);
      }

      .cls-4 {
        fill: #ff8c00;
      }

      .cls-5 {
        fill: url(#Unbenannter_Verlauf_108-2);
      }
    </style>
    <linearGradient id="Unbenannter_Verlauf_42" data-name="Unbenannter Verlauf 42" x1="71.32" y1="415.68" x2="415.68" y2="71.32" gradientUnits="userSpaceOnUse">
      <stop offset="0" stop-color="#a1d6a1"/>
      <stop offset="1" stop-color="#4a90e2"/>
    </linearGradient>
    <linearGradient id="Unbenannter_Verlauf_108" data-name="Unbenannter Verlauf 108" x1="127.84" y1="45.42" x2="127.84" y2="207.67" gradientUnits="userSpaceOnUse">
      <stop offset="0" stop-color="#ffc600"/>
      <stop offset=".12" stop-color="#fb0"/>
      <stop offset=".46" stop-color="#ffa100"/>
      <stop offset=".76" stop-color="#ff9100"/>
      <stop offset="1" stop-color="#ff8c00"/>
    </linearGradient>
    <linearGradient id="Unbenannter_Verlauf_108-2" data-name="Unbenannter Verlauf 108" x1="393.84" y1="261.42" x2="393.84" y2="423.67" xlink:href="#Unbenannter_Verlauf_108"/>
  </defs>
  <g id="Ebene_1-2" data-name="Ebene 1">
    <path class="cls-2" d="M0,243.5C0,109.02,109.02,0,243.5,0s243.5,109.02,243.5,243.5-109.02,243.5-243.5,243.5S0,377.98,0,243.5M228.28,32.78c-20.39,6.21-40.63,24.96-57.44,56.46-4.36,8.18-8.37,17.02-12.02,26.54,21.46,4.78,44.8,7.82,69.46,8.74V32.78ZM129.33,107.72c4.34-11.71,9.22-22.65,14.64-32.81,5.3-9.93,11.37-19.43,18.17-28.4-25.92,10.73-49.46,26.47-69.28,46.33,11.04,5.62,23.19,10.59,36.46,14.91v-.03ZM106.81,228.28c1.1-32.57,5.72-63.52,13.27-91.56-16.48-5.25-32.43-12.05-47.63-20.3-24.25,32.55-38.64,71.37-41.46,111.86h75.82ZM149.42,144.85c-7.19,27.26-11.27,55.25-12.18,83.43h91.04v-73.32c-27.7-.91-54.27-4.41-78.86-10.11M258.72,154.93v73.35h91.01c-.89-28.18-4.97-56.17-12.14-83.43-24.59,5.69-51.17,9.16-78.86,10.11v-.03ZM137.27,258.72c1.07,30.04,5.36,58.26,12.14,83.43,25.9-5.88,52.31-9.25,78.86-10.07v-73.35h-91.01ZM258.72,258.72v73.32c27.7.91,54.27,4.41,78.86,10.11,6.79-25.17,11.08-53.39,12.17-83.43h-91.04ZM158.82,371.22c3.65,9.52,7.66,18.36,12.02,26.54,16.8,31.5,37.07,50.22,57.44,56.46v-91.71c-24.65.91-48,3.96-69.46,8.74v-.03ZM162.17,440.49c-6.81-8.97-12.89-18.47-18.2-28.4-5.59-10.61-10.48-21.59-14.64-32.84-12.52,4.03-24.71,9.01-36.46,14.91,19.82,19.85,43.36,35.59,69.28,46.33h.03ZM120.08,350.27c-7.89-29.92-12.35-60.63-13.3-91.56H30.99c2.82,40.49,17.21,79.31,41.46,111.86,14.31-7.85,30.29-14.67,47.63-20.3M324.86,440.49c25.9-10.73,49.43-26.46,69.25-46.3-11.74-5.9-23.92-10.89-36.43-14.91-4.16,11.25-9.05,22.21-14.64,32.81-5.3,9.93-11.37,19.43-18.17,28.4M258.72,362.48v91.74c20.39-6.21,40.63-24.96,57.44-56.46,4.38-8.18,8.39-17.02,12.02-26.54-22.84-5.01-46.09-7.93-69.46-8.71v-.03ZM366.92,350.27c17.35,5.63,33.33,12.45,47.63,20.3,24.25-32.55,38.64-71.37,41.46-111.86h-75.79c-.95,30.92-5.41,61.64-13.3,91.56M456.01,228.28c-2.82-40.49-17.21-79.31-41.46-111.86-14.31,7.85-30.29,14.67-47.63,20.3,7.55,28,12.17,58.99,13.3,91.56h75.79ZM343.03,74.91c5.4,10.19,10.29,21.12,14.67,32.81,12.5-4.03,24.67-9.02,36.4-14.91-19.81-19.83-43.35-35.55-69.25-46.26,6.64,8.61,12.72,18.17,18.17,28.37M328.18,115.78c-3.47-9.08-7.49-17.94-12.02-26.54-16.8-31.5-37.04-50.22-57.44-56.46v91.71c24.65-.91,48-3.96,69.46-8.74v.03Z"/>
    <path class="cls-3" d="M127.84,207.67s60.84-57.66,60.84-101.41c0-33.6-27.24-60.84-60.84-60.84s-60.84,27.24-60.84,60.84c0,43.75,60.84,101.41,60.84,101.41M127.84,136.68c-16.8,0-30.42-13.62-30.42-30.42s13.62-30.42,30.42-30.42,30.42,13.62,30.42,30.42-13.62,30.42-30.42,30.42"/>
    <path class="cls-5" d="M393.84,423.67s60.84-57.66,60.84-101.41c0-33.6-27.24-60.84-60.84-60.84s-60.84,27.24-60.84,60.84c0,43.75,60.84,101.41,60.84,101.41M393.84,352.68c-16.8,0-30.42-13.62-30.42-30.42s13.62-30.42,30.42-30.42,30.42,13.62,30.42,30.42-13.62,30.42-30.42,30.42"/>
    <g>
      <path class="cls-4" d="M.14,523.8c0-4.19,3.48-7.67,7.67-7.67h26.19c3.99,0,7.16,3.17,7.16,7.16s-3.17,7.16-7.16,7.16H15.48v14.32h18.52c3.99,0,7.16,3.17,7.16,7.16s-3.17,7.16-7.16,7.16H15.48v21.99c0,4.19-3.48,7.67-7.67,7.67s-7.67-3.48-7.67-7.67v-57.29Z"/>
      <path class="cls-4" d="M47.3,561.65c0-15.14,10.84-27.11,25.27-27.11,5.63,0,10.84,1.94,15.04,5.12.92-2.97,3.68-5.12,6.96-5.12,3.99,0,7.16,3.17,7.16,7.16v39.9c0,3.99-3.17,7.16-7.16,7.16-3.27,0-6.04-2.15-6.96-5.12-4.19,3.27-9.41,5.12-15.04,5.12-14.42,0-25.27-11.97-25.27-27.11ZM87.4,561.65c0-7.88-5.63-13.81-12.79-13.81s-12.89,5.93-12.89,13.81,5.63,13.81,12.89,13.81,12.79-5.83,12.79-13.81Z"/>
      <path class="cls-4" d="M114,541.7c0-3.99,3.17-7.16,7.16-7.16s7.16,3.17,7.16,7.16v21.79l22.3-26.6c1.43-1.64,2.97-2.35,4.91-2.35,3.89,0,6.85,2.76,6.85,6.55,0,1.43-.51,2.97-1.53,4.3l-34.47,41.02c-1.43,1.64-2.97,2.35-5.22,2.35-3.99,0-7.16-3.17-7.16-7.16v-39.9Z"/>
      <path class="cls-1" d="M167.5,572.39c0-4.19,3.48-7.67,7.67-7.67,3.07,0,4.91,1.64,6.24,3.48,2.05,2.76,3.58,6.24,9.1,6.24,4.6,0,8.18-3.58,8.18-8.18s-4.3-6.44-9.62-8.18l-5.22-1.74c-7.77-2.56-15.86-7.37-15.86-20.87,0-11.56,9.92-20.36,22.5-20.36,13.5,0,21.89,9.82,21.89,15.24,0,4.19-3.48,7.67-7.67,7.67-2.97,0-4.5-1.43-5.93-3.17-1.94-2.46-3.58-5.42-8.29-5.42-3.99,0-7.16,3.17-7.16,7.06,0,4.19,3.89,6.24,8.08,7.57l4.4,1.43c8.59,2.76,18.21,6.96,18.21,21.79,0,12.28-10.33,21.48-23.53,21.48s-23.02-10.03-23.02-16.37Z"/>
      <path class="cls-1" d="M238.6,583.85v17.19c0,3.99-3.17,7.16-7.16,7.16s-7.16-3.17-7.16-7.16v-59.33c0-3.99,3.17-7.16,7.16-7.16,3.27,0,6.04,2.15,6.85,5.12,4.19-3.17,9.41-5.12,15.14-5.12,14.42,0,25.27,11.97,25.27,27.11s-10.84,27.11-25.27,27.11c-5.63,0-10.74-1.74-14.83-4.91ZM264.28,561.65c0-7.88-5.63-13.81-12.89-13.81s-12.58,5.73-12.79,13.3v.51c0,7.98,5.63,13.81,12.79,13.81s12.89-5.83,12.89-13.81Z"/>
      <path class="cls-1" d="M288.93,522.27c0-3.99,3.17-7.16,7.16-7.16s7.16,3.17,7.16,7.16v15.04c3.17-1.74,6.75-2.76,10.74-2.76,12.38,0,21.99,9.62,21.99,24.04v23.02c0,3.99-3.17,7.16-7.16,7.16s-7.16-3.17-7.16-7.16v-23.53c0-6.65-4.09-10.23-9.21-10.23s-9.21,3.58-9.21,10.23v23.53c0,3.99-3.17,7.16-7.16,7.16s-7.16-3.17-7.16-7.16v-59.33Z"/>
      <path class="cls-1" d="M346.22,561.65c0-15.14,11.46-27.11,27.31-27.11,8.39,0,14.73,3.48,17.59,6.14,1.64,1.43,2.56,3.48,2.56,5.52,0,1.74-.51,3.27-1.94,5.01l-13.2,15.75c-1.43,1.64-2.97,2.35-4.91,2.35-3.89,0-6.85-2.76-6.85-6.55,0-1.53.41-3.07,1.53-4.3l8.8-10.13c-.72-.31-2.46-.51-3.58-.51-7.26,0-12.89,6.14-12.89,13.81s5.52,13.81,12.89,13.81c3.79,0,6.34-1.53,8.08-2.97,2.05-1.74,3.48-3.27,6.24-3.27,3.99,0,7.06,2.86,7.06,6.85,0,1.43-.72,3.17-2.05,4.71-3.48,4.19-10.54,7.98-19.33,7.98-15.75,0-27.31-11.87-27.31-27.11Z"/>
      <path class="cls-1" d="M404.64,560.42c0-15.86,11.05-25.88,24.86-25.88,3.68,0,6.65,2.97,6.65,6.65s-2.97,6.65-6.65,6.65c-5.83,0-10.54,4.09-10.54,12.58v21.17c0,3.99-3.17,7.16-7.16,7.16s-7.16-3.17-7.16-7.16v-21.17Z"/>
      <path class="cls-1" d="M439.72,561.65c0-15.14,11.46-27.11,27.31-27.11,8.39,0,14.73,3.48,17.59,6.14,1.64,1.43,2.56,3.48,2.56,5.52,0,1.74-.51,3.27-1.94,5.01l-13.2,15.75c-1.43,1.64-2.97,2.35-4.91,2.35-3.89,0-6.85-2.76-6.85-6.55,0-1.53.41-3.07,1.53-4.3l8.8-10.13c-.72-.31-2.46-.51-3.58-.51-7.26,0-12.89,6.14-12.89,13.81s5.52,13.81,12.89,13.81c3.78,0,6.34-1.53,8.08-2.97,2.05-1.74,3.48-3.27,6.24-3.27,3.99,0,7.06,2.86,7.06,6.85,0,1.43-.72,3.17-2.04,4.71-3.48,4.19-10.54,7.98-19.33,7.98-15.75,0-27.31-11.87-27.31-27.11Z"/>
    </g>
  </g>
</svg>